HIERARCHY
ROOT joint_Root
{
	OFFSET 0.0 0.0 0.0
	CHANNELS 6 Xposition Yposition Zposition Zrotation Xrotation Yrotation 
	JOINT Hips
	{
		OFFSET 4.5925 91.4895 -427.239
		CHANNELS 6 Xposition Yposition Zposition Zrotation Xrotation Yrotation 
		JOINT Spine
		{
			OFFSET 15.7357 0.0 0.0
			CHANNELS 6 Xposition Yposition Zposition Zrotation Xrotation Yrotation 
			JOINT Chest
			{
				OFFSET 8.98455 -0.406207 0.0
				CHANNELS 6 Xposition Yposition Zposition Zrotation Xrotation Yrotation 
				JOINT Neck
				{
					OFFSET 16.3773 0.0 0.0
					CHANNELS 6 Xposition Yposition Zposition Zrotation Xrotation Yrotation 
					JOINT Head
					{
						OFFSET 6.45672 0.0 0.0
						CHANNELS 6 Xposition Yposition Zposition Zrotation Xrotation Yrotation 
						End Site
						{
							OFFSET 0.0 0.0 0.0
						}
					}
				}
				JOINT Shoulder_L
				{
					OFFSET 12.9942 -0.242716 4.98039
					CHANNELS 6 Xposition Yposition Zposition Zrotation Xrotation Yrotation 
					JOINT UpperArm_L
					{
						OFFSET 5.34809 0.0 0.0
						CHANNELS 6 Xposition Yposition Zposition Zrotation Xrotation Yrotation 
						JOINT LowerArm_L
						{
							OFFSET 24.3286 1.87007e-05 0.0
							CHANNELS 6 Xposition Yposition Zposition Zrotation Xrotation Yrotation 
							JOINT Hand_L
							{
								OFFSET 22.2916 0.0 0.0
								CHANNELS 6 Xposition Yposition Zposition Zrotation Xrotation Yrotation 
								End Site
								{
									OFFSET 0.0 0.0 0.0
								}
							}
						}
					}
				}
				JOINT Shoulder_R
				{
					OFFSET 12.9945 -0.242716 -4.98039
					CHANNELS 6 Xposition Yposition Zposition Zrotation Xrotation Yrotation 
					JOINT UpperArm_R
					{
						OFFSET -5.34813 0.0 0.0
						CHANNELS 6 Xposition Yposition Zposition Zrotation Xrotation Yrotation 
						JOINT LowerArm_R
						{
							OFFSET -24.3289 0.000322201 0.0
							CHANNELS 6 Xposition Yposition Zposition Zrotation Xrotation Yrotation 
							JOINT Hand_R
							{
								OFFSET -22.2915 -0.000108084 0.0
								CHANNELS 6 Xposition Yposition Zposition Zrotation Xrotation Yrotation 
								End Site
								{
									OFFSET 0.0 0.0 0.0
								}
							}
						}
					}
				}
			}
		}
		JOINT UpperLeg_L
		{
			OFFSET -2.19248 -6.46944 0.0
			CHANNELS 6 Xposition Yposition Zposition Zrotation Xrotation Yrotation 
			JOINT LowerLeg_L
			{
				OFFSET 39.0811 0.0 -1.23785e-05
				CHANNELS 6 Xposition Yposition Zposition Zrotation Xrotation Yrotation 
				JOINT Foot_L
				{
					OFFSET 40.9854 0.0 -1.26872e-05
					CHANNELS 6 Xposition Yposition Zposition Zrotation Xrotation Yrotation 
					JOINT Toes_L
					{
						OFFSET 11.7543 0.0 0.0
						CHANNELS 6 Xposition Yposition Zposition Zrotation Xrotation Yrotation 
						End Site
						{
							OFFSET 0.0 0.0 0.0
						}
					}
				}
			}
		}
		JOINT UpperLeg_R
		{
			OFFSET -2.19251 6.46944 0.0
			CHANNELS 6 Xposition Yposition Zposition Zrotation Xrotation Yrotation 
			JOINT LowerLeg_R
			{
				OFFSET -39.0811 -0.00228153 -0.0401928
				CHANNELS 6 Xposition Yposition Zposition Zrotation Xrotation Yrotation 
				JOINT Foot_R
				{
					OFFSET -40.9854 0.0 0.0
					CHANNELS 6 Xposition Yposition Zposition Zrotation Xrotation Yrotation 
					JOINT Toes_R
					{
						OFFSET -11.7543 0.0 0.0
						CHANNELS 6 Xposition Yposition Zposition Zrotation Xrotation Yrotation 
						End Site
						{
							OFFSET 0.0 0.0 0.0
						}
					}
				}
			}
		}
	}
}
MOTION
Frames:	4
Frame Time:	0.0333333
0.000000 0.000000 0.000000 0.000000 0.000000 -0.000000 -0.571274 83.635900 -1.464760 89.636100 -4.518970 9.670470 15.735700 0.000005 -0.000001 87.338700 81.400900 -87.288500 8.984550 -0.406207 -0.000000 9.414540 -0.793297 0.165569 16.377300 -0.000001 -0.000001 -1.155730 -1.806330 0.535738 6.456720 -0.000001 -0.000000 -2.352530 -0.976242 1.179000 12.994200 -0.242716 4.980390 -91.709100 6.135320 -74.400900 5.348090 -0.000007 -0.000001 -67.235800 18.960500 -11.393100 24.328600 0.000019 0.000005 12.872200 18.983600 -35.082000 22.291600 -0.000001 0.000005 10.191400 5.352340 -1.462100 12.994500 -0.242716 -4.980390 88.333400 8.985940 -79.447900 -5.348130 -0.000001 -0.000004 -58.514400 36.136800 -11.828100 -24.328900 0.000322 -0.000009 2.713360 4.823700 -29.420600 -22.291500 -0.000108 -0.000004 18.980300 5.449300 -4.609270 -2.192480 -6.469440 -0.000000 -173.504000 -16.190200 -14.080900 39.081100 -0.000007 -0.000012 -0.340144 0.212385 58.020300 40.985400 -0.000006 -0.000013 2.960950 8.260780 -83.817600 11.754300 -0.000000 0.000003 -0.000357 -0.003011 -16.689100 -2.192510 6.469440 -0.000001 175.868000 13.477100 165.352000 -39.081100 -0.002282 -0.040193 0.073261 -0.042959 58.481400 -40.985400 0.000008 0.000006 7.384240 6.380890 -84.131300 -11.754300 -0.000006 -0.000006 -0.745917 -0.922057 -16.662300
0.000000 0.000000 0.000000 0.000000 0.000000 -0.000000 -0.518805 85.271500 -0.812949 89.933200 -4.249080 9.837320 15.735700 0.000005 -0.000001 87.213500 81.983000 -86.723800 8.984550 -0.406207 -0.000000 8.253010 -0.773870 1.034330 16.377300 -0.000001 -0.000001 0.980181 -2.022340 0.320511 6.456720 -0.000001 -0.000000 -0.514994 -1.265510 0.403136 12.994200 -0.242716 4.980390 -91.517600 5.047860 -73.240300 5.348090 -0.000007 -0.000001 -62.029600 14.640100 -18.862000 24.328600 0.000019 0.000005 16.420800 19.527400 -41.400100 22.291600 -0.000001 0.000005 10.302900 5.369710 -1.977380 12.994500 -0.242716 -4.980390 88.228700 8.852780 -78.638000 -5.348130 -0.000001 -0.000004 -60.606100 33.677300 -9.300390 -24.328900 0.000322 -0.000009 2.149200 4.210670 -27.073400 -22.291500 -0.000108 -0.000004 18.730500 5.429670 -3.927930 -2.192480 -6.469440 -0.000000 -173.913000 -15.644700 -10.859200 39.081100 -0.000007 -0.000012 -0.308447 0.234805 52.720600 40.985400 -0.000006 -0.000013 2.532710 8.143150 -81.618500 11.754300 -0.000000 0.000003 -0.000345 -0.002923 -16.685900 -2.192510 6.469440 -0.000001 175.286000 13.738600 168.518000 -39.081100 -0.002282 -0.040193 0.062299 -0.043721 53.490600 -40.985400 0.000008 0.000006 7.059820 6.827260 -81.972700 -11.754300 -0.000006 -0.000006 -0.747146 -0.921990 -16.810800
0.000000 0.000000 0.000000 0.000000 0.000000 -0.000000 -0.602348 87.382800 -0.207944 90.030900 -3.471110 9.616220 15.735700 0.000005 -0.000001 86.836600 82.826300 -85.841400 8.984550 -0.406207 -0.000000 6.567640 -0.799693 2.034060 16.377300 -0.000001 -0.000001 3.794190 -2.723170 0.027880 6.456720 -0.000001 -0.000000 1.252050 -2.020690 -0.680384 12.994200 -0.242716 4.980390 -91.020100 3.230180 -72.462500 5.348090 -0.000007 -0.000001 -55.838100 6.445130 -30.324600 24.328600 0.000019 0.000005 16.124600 16.449800 -45.605000 22.291600 -0.000001 0.000005 10.403800 5.364290 -1.813560 12.994500 -0.242716 -4.980390 88.151900 8.303190 -77.404300 -5.348130 -0.000001 -0.000004 -61.902500 33.050000 -6.629280 -24.328900 0.000322 -0.000009 0.983718 2.054730 -25.613500 -22.291500 -0.000108 -0.000004 18.024000 5.441440 -4.335780 -2.192480 -6.469440 -0.000000 -174.196000 -14.823000 -7.095490 39.081100 -0.000007 -0.000012 -0.254797 0.252602 45.248400 40.985400 -0.000006 -0.000013 1.959520 8.288660 -78.189000 11.754300 -0.000000 0.000003 -0.000264 -0.002337 -16.665000 -2.192510 6.469440 -0.000001 175.026000 14.591600 172.398000 -39.081100 -0.002282 -0.040193 0.048720 -0.043407 46.322900 -40.985400 0.000008 0.000006 6.652490 7.359860 -78.580900 -11.754300 -0.000006 -0.000006 -0.691120 -0.849234 -17.124500
0.000000 0.000000 0.000000 0.000000 0.000000 -0.000000 -0.829982 89.229000 0.195689 89.782200 -2.415290 8.598650 15.735700 0.000005 -0.000001 84.808300 83.863400 -83.287200 8.984550 -0.406207 -0.000000 4.474700 -1.152330 3.083980 16.377300 -0.000001 -0.000001 5.971570 -3.656150 -0.107841 6.456720 -0.000001 -0.000000 2.949050 -2.797340 -1.542560 12.994200 -0.242716 4.980390 -90.262900 0.854838 -72.930400 5.348090 -0.000007 -0.000001 -49.927200 -5.847290 -42.724100 24.328600 0.000019 0.000005 11.182400 10.070700 -48.521200 22.291600 -0.000001 0.000005 12.765900 5.341710 -1.140070 12.994500 -0.242716 -4.980390 88.187900 7.369280 -76.143300 -5.348130 -0.000001 -0.000004 -62.477900 33.279700 -3.977230 -24.328900 0.000322 -0.000009 1.508080 3.063930 -26.231800 -22.291500 -0.000108 -0.000004 16.202000 5.447310 -4.548890 -2.192480 -6.469440 -0.000000 -174.144000 -14.186100 -4.321990 39.081100 -0.000007 -0.000012 -0.209654 0.270084 37.821000 40.985400 -0.000006 -0.000013 1.438460 8.927380 -74.598500 11.754300 -0.000000 0.000003 -0.000174 -0.001644 -16.639800 -2.192510 6.469440 -0.000001 175.283000 16.507800 175.419000 -39.081100 -0.002282 -0.040193 0.037007 -0.041515 39.090100 -40.985400 0.000008 0.000006 6.624440 8.327540 -74.972300 -11.754300 -0.000006 -0.000006 -0.664574 -0.813704 -17.544900
